<svg xmlns="http://www.w3.org/2000/svg" width="256" height="256" viewBox="0 0 256 256" role="img" aria-label="ATLAS File Studio">
  <rect width="256" height="256" rx="56" fill="#101b2f"/>
  <path d="M40 70h74l18 22h84v94a20 20 0 0 1-20 20H60a20 20 0 0 1-20-20Z" fill="#0f8f83"/>
  <path d="M56 96h144v84a10 10 0 0 1-10 10H66a10 10 0 0 1-10-10Z" fill="#14262d"/>
  <path d="m92 128-18 18 18 18" fill="none" stroke="#2dd4bf" stroke-width="12" stroke-linecap="round" stroke-linejoin="round"/>
  <path d="m164 128 18 18-18 18" fill="none" stroke="#2dd4bf" stroke-width="12" stroke-linecap="round" stroke-linejoin="round"/>
  <path d="m138 120-20 54" fill="none" stroke="#facc15" stroke-width="12" stroke-linecap="round"/>
  <g aria-label="ATLAS overlay" transform="translate(166 166)">
    <rect x="0" y="0" width="58" height="58" rx="16" fill="#092633" stroke="#2dd4bf" stroke-width="3"/>
    <path d="M29 10 10 48h9.5l3-6.8h13l3 6.8H48L29 10Zm-3.3 23.4L29 24.3l3.3 9.1h-6.6Z" fill="#f6a800"/>
    <path d="M29 10 48 48h-9.5L29 24.3V10Z" fill="#36d8ff" opacity="0.9"/>
    <circle cx="45" cy="17" r="4" fill="#2dd4bf"/>
    <circle cx="45" cy="41" r="4" fill="#2dd4bf"/>
  </g>
</svg>
