<svg width="96" height="96" viewBox="0 0 96 96" xmlns="http://www.w3.org/2000/svg" role="img" aria-labelledby="title desc">
  <title id="title">ATLAS Automation Exporter / Editor</title>
  <desc id="desc">Workflow nodes, export arrow and ATLAS overlay badge.</desc>
  <defs>
    <linearGradient id="panel" x1="12" y1="10" x2="84" y2="86" gradientUnits="userSpaceOnUse">
      <stop offset="0" stop-color="#10272a"/>
      <stop offset="1" stop-color="#071115"/>
    </linearGradient>
    <linearGradient id="accent" x1="20" y1="18" x2="78" y2="74" gradientUnits="userSpaceOnUse">
      <stop offset="0" stop-color="#7af7df"/>
      <stop offset="1" stop-color="#10b8a3"/>
    </linearGradient>
  </defs>
  <rect x="6" y="6" width="84" height="84" rx="16" fill="url(#panel)" stroke="#19d6c3" stroke-width="3"/>
  <path d="M29 28h18c10 0 18 8 18 18v2" fill="none" stroke="url(#accent)" stroke-width="6" stroke-linecap="round"/>
  <path d="M65 48l-9-9m9 9l-9 9" fill="none" stroke="#ff9f0a" stroke-width="6" stroke-linecap="round" stroke-linejoin="round"/>
  <circle cx="28" cy="28" r="9" fill="#122f33" stroke="#7af7df" stroke-width="4"/>
  <circle cx="28" cy="68" r="9" fill="#122f33" stroke="#7af7df" stroke-width="4"/>
  <circle cx="68" cy="48" r="9" fill="#2b1a02" stroke="#ff9f0a" stroke-width="4"/>
  <path d="M28 37v22" fill="none" stroke="#7af7df" stroke-width="5" stroke-linecap="round"/>
  <path d="M37 68h20" fill="none" stroke="#7af7df" stroke-width="5" stroke-linecap="round"/>
  <rect x="54" y="62" width="30" height="22" rx="7" fill="#071115" stroke="#ff9f0a" stroke-width="3"/>
  <path d="M62 77l7-13 7 13m-10-4h6" fill="none" stroke="#7af7df" stroke-width="3" stroke-linecap="round" stroke-linejoin="round"/>
</svg>
